<svg version="1.1" id="Ebene_1" xmlns="http://www.w3.org/2000/svg" xmlns:xlink="http://www.w3.org/1999/xlink" x="0px" y="0px"
	 width="500px" height="500px" viewBox="0 0 500 500" enable-background="new 0 0 500 500" xml:space="preserve">
<path display="none" fill="#666666" d="M376.656,344.563c-7.438,2.188-13.344,2.97-21.063,2.97
	c-63.53,0-156.781-221.875-156.781-295.688c0-27.188,6.469-36.25,15.531-44.063c-77.688,9.094-170.906,37.594-200.75,73.875
	c-6.469,9.063-10.375,23.313-10.375,41.438C3.219,238.375,126.25,500,213.125,500C253.219,500,320.938,433.938,376.656,344.563
	 M336.125,0C416.438,0,496.75,12.969,496.75,58.281c0,91.969-58.281,203.375-88.063,203.375C355.563,261.656,289.5,114,289.5,40.156
	C289.5,6.469,302.5,0,336.125,0"/>
<circle id="schadow_x5F_back_x5F_tp" fill="#7C7C7C" cx="261.242" cy="198.26" r="160.271"/>
<radialGradient id="back_x5F_tp_1_" cx="576.0879" cy="287.8887" r="258.21" gradientTransform="matrix(0.6207 0 0 -0.6207 -97.9336 373.2227)" gradientUnits="userSpaceOnUse">
	<stop  offset="0" style="stop-color:#333333"/>
	<stop  offset="1" style="stop-color:#FFFFFF"/>
</radialGradient>
<circle id="back_x5F_tp" fill="url(#back_x5F_tp_1_)" stroke="#FFFFFF" stroke-miterlimit="10" cx="259.645" cy="194.531" r="160.271"/>
<circle id="blau" fill="#005E9E" cx="263.107" cy="195.862" r="110.977"/>
<circle id="schadow_x5F_back_x5F_3" fill="#5E5D5D" cx="380.194" cy="91.414" r="85.797"/>
<radialGradient id="back_x5F_3_1_" cx="568.5781" cy="597.4131" r="258.2695" gradientTransform="matrix(0.3322 0 0 -0.3322 190.6672 287.743)" gradientUnits="userSpaceOnUse">
	<stop  offset="0" style="stop-color:#333333"/>
	<stop  offset="1" style="stop-color:#FFFFFF"/>
</radialGradient>
<circle id="back_x5F_3" fill="url(#back_x5F_3_1_)" stroke="#FFFFFF" stroke-miterlimit="10" cx="379.549" cy="89.282" r="85.797"/>
<circle id="orange" fill="#EB7900" cx="382.345" cy="90.747" r="59.685"/>
<g id="tp">
	<g>
		<path fill="#FFFFFF" d="M241.812,162.861v17.316H225.44v33.085c0,6.698,0.156,10.603,0.469,11.712
			c0.312,1.108,1.024,2.023,2.132,2.743c1.108,0.722,2.458,1.081,4.051,1.081c2.217,0,5.428-0.696,9.635-2.088l2.046,16.853
			c-5.572,2.166-11.882,3.249-18.929,3.249c-4.32,0-8.216-0.657-11.682-1.97c-3.469-1.315-6.011-3.016-7.63-5.103
			c-1.621-2.088-2.743-4.909-3.368-8.464c-0.512-2.525-0.768-7.628-0.768-15.308v-35.792h-11V162.86h11v-16.311l24.046-12.677
			v28.988L241.812,162.861L241.812,162.861L241.812,162.861L241.812,162.861z"/>
		<path fill="#FFFFFF" d="M257.757,162.861h22.341v12.06c2.897-4.123,6.821-7.472,11.768-10.05
			c4.945-2.576,10.431-3.865,16.457-3.865c10.515,0,19.438,3.737,26.773,11.209c7.333,7.474,10.999,17.885,10.999,31.23
			c0,13.708-3.695,24.365-11.084,31.963c-7.391,7.603-16.344,11.402-26.857,11.402c-5.004,0-9.54-0.902-13.603-2.704
			c-4.064-1.806-8.343-4.897-12.833-9.277v41.354h-23.961V162.861z M281.463,202.517c0,9.226,2.018,16.042,6.053,20.447
			c4.035,4.406,8.953,6.608,14.752,6.608c5.569,0,10.203-2.022,13.898-6.067c3.695-4.046,5.542-10.681,5.542-19.907
			c0-8.605-1.906-14.997-5.714-19.172c-3.809-4.173-8.527-6.261-14.155-6.261c-5.854,0-10.715,2.047-14.579,6.145
			C283.395,188.41,281.463,194.478,281.463,202.517z"/>
	</g>
</g>
<g id="back">
	<g>
		<path fill="#E5E5E5" d="M356.911,102.993l13.896-1.406c0.442,2.955,1.636,5.213,3.576,6.775c1.943,1.562,4.293,2.343,7.051,2.343
			c2.965,0,5.456-0.938,7.484-2.813c2.027-1.875,3.042-4.402,3.042-7.584c0-3.011-0.972-5.396-2.913-7.158
			c-1.944-1.761-4.31-2.642-7.103-2.642c-1.839,0-4.036,0.299-6.592,0.895l1.585-9.757c3.884,0.086,6.848-0.617,8.891-2.109
			c2.044-1.491,3.064-3.472,3.064-5.943c0-2.101-0.748-3.777-2.248-5.027c-1.498-1.25-3.49-1.875-5.978-1.875
			c-2.453,0-4.548,0.711-6.285,2.131c-1.735,1.421-2.793,3.494-3.167,6.22l-13.232-1.875c0.922-3.777,2.309-6.795,4.166-9.053
			c1.854-2.258,4.442-4.033,7.764-5.326c3.32-1.292,7.042-1.938,11.163-1.938c7.051,0,12.705,1.875,16.963,5.623
			c3.508,3.068,5.263,6.534,5.263,10.396c0,5.482-3.593,9.857-10.779,13.123c4.292,0.767,7.724,2.486,10.294,5.155
			c2.57,2.67,3.856,5.895,3.856,9.671c0,5.482-2.4,10.155-7.205,14.018c-4.803,3.863-10.779,5.794-17.933,5.794
			c-6.779,0-12.399-1.626-16.86-4.879C360.214,112.501,357.626,108.248,356.911,102.993z"/>
	</g>
</g>
<path fill="#EB7900" d="M33.4,492.7l48.1-148.2l48.1,148.2L3.5,401.05h156"/>
<text transform="matrix(1 0 0 1 163.4976 470.3955)" font-family="'MyriadPro-Regular'" font-size="97.798">Ratings</text>
</svg>
